<?xml version="1.0" standalone="no"?>
<svg viewBox="0 0 200 200" xmlns="http://www.w3.org/2000/svg">
  <path fill="#08BDBA" d="M37.9,-61.4C52.3,-57.4,69.3,-53.6,78.6,-43.4C87.8,-33.2,89.3,-16.6,84.8,-2.6C80.4,11.4,69.8,22.8,62.4,36.1C54.9,49.4,50.4,64.5,40.5,72.3C30.6,80.1,15.3,80.6,1.2,78.5C-12.9,76.3,-25.7,71.6,-36.8,64.5C-47.9,57.4,-57.3,47.9,-66,36.8C-74.7,25.7,-82.7,12.8,-82.3,0.2C-81.9,-12.4,-73,-24.7,-64.4,-35.9C-55.7,-47.1,-47.2,-57.1,-36.5,-63.2C-25.8,-69.4,-12.9,-71.7,-0.6,-70.7C11.8,-69.7,23.6,-65.5,37.9,-61.4Z" transform="translate(100 100)" />
</svg>
